<svg xmlns="http://www.w3.org/2000/svg" xmlns:xlink="http://www.w3.org/1999/xlink"><symbol id="icon_book" viewBox="0 0 51.5 40"><path d="M37.5 3a15.75 15.75 0 0 0-12 2S21.12 1.94 14 3.5C4.56 5.57 0 .5 0 .5v36s5.1 3.57 14 1A12.75 12.75 0 0 1 25.5 40s5.35-4.92 12-3c8.9 2.57 14-1 14-1V0s-4.56 5.07-14 3zm-13 33.25A12.57 12.57 0 0 0 14 34.5c-8.9 2.57-12 0-12 0L2.5 5S4.56 8.57 14 6.5a16.22 16.22 0 0 1 10.5 1zm25-2.25s-3.1 2.57-12 0c-4.94-1.42-9.15.92-11 2.22V7.4a16.16 16.16 0 0 1 11-1.4c9.44 2.07 12-2 12-2zm-33-13h-6a1 1 0 0 0 0 2h6a1 1 0 0 0 0-2zm27-6h-12a1 1 0 0 0 0 2h12a1 1 0 0 0 0-2zm-37 1a1 1 0 0 0 1 1h12a1 1 0 0 0 0-2h-12a1 1 0 0 0-1 1zm34 5h-6a1 1 0 0 0 0 2h6a1 1 0 0 0 0-2z" fill="#d7569c"/></symbol><symbol id="icon_box" viewBox="0 0 57 42"><path d="M55 0H2a2 2 0 0 0-2 2v8a2 2 0 0 0 2 2h1v28a2 2 0 0 0 2 2h46a2 2 0 0 0 2-2V12h2a2 2 0 0 0 2-2V2a2 2 0 0 0-2-2zM35 2v23s-6-4.12-6-4-8 5-8 5V2zm20 6v2h-4v30H5V10H2V2h17v8H9a1 1 0 0 0 0 2h10v17s10-4.92 10-5 8 5 8 5V12h10a1 1 0 0 0 0-2H37V2h18z" fill="#d7569c"/></symbol><symbol id="icon_delivery" viewBox="0 0 67 38"><path d="M67 15A10 10 0 0 0 57 5h-7V0H16v8H7l.14 2H18V2h30v26H18v-8H8l-.4-4h25l-2.42 2.41a1 1 0 0 0 1.42 1.42l3.74-3.75a1 1 0 0 0 .5-.25 1 1 0 0 0 .26-.83.93.93 0 0 0-.77-1.08l-3.74-3.75a1 1 0 0 0-1.42 1.42L32.59 14H1a1 1 0 0 0 0 2h6.57L8 22h8v8h8a5 5 0 1 0 8 0h22a5 5 0 1 0 8 0h5zM28 36a3 3 0 1 1 3-3 3 3 0 0 1-3 3zm30 0a3 3 0 1 1 3-3 3 3 0 0 1-3 3zm7-8H50V7h7c4 0 8 4 8 8z" fill="#d7569c"/></symbol><symbol id="icon_map" viewBox="0 0 52 47"><path d="M43 2a6.88 6.88 0 0 1 7 6.73c0 .79-.48 3.93-6.41 12.12C40.37 17.13 36 11.25 36 8.73A6.88 6.88 0 0 1 43 2m.25 11.09a4 4 0 1 0-4-4 4 4 0 0 0 4 4M12 16a10 10 0 0 1 10 10c0 1.5-.92 6.19-9.17 17.8C8.89 39.17 2 30.06 2 26a10 10 0 0 1 10-10m0 17a7 7 0 1 0-7-7 7 7 0 0 0 7 7M43 0a8.87 8.87 0 0 0-9 8.73C34 13.54 43.74 24 43.75 24c0-.09 8.25-10.45 8.25-15.27A8.87 8.87 0 0 0 43 0zm.25 11.09a2 2 0 1 1 2-2 2 2 0 0 1-2 2zM12 14A12 12 0 0 0 0 26c0 6.62 13 21 13 21 0-.12 11-14.37 11-21a12 12 0 0 0-12-12zm0 17a5 5 0 1 1 5-5 5 5 0 0 1-5 5zm27.89-4c-.63 0-3.81.15-7.89 3a19.91 19.91 0 0 0-7 9l15-12z" fill="#d7569c"/></symbol></svg>